<svg width="25" height="25" viewBox="0 0 25 25" fill="none" xmlns="http://www.w3.org/2000/svg">
<g clip-path="url(#clip0_3892_166)">
<path d="M12.2441 0.509766C15.3559 0.509868 18.3406 1.74688 20.541 3.94727C22.7412 6.1477 23.9775 9.13238 23.9775 12.2441C23.9774 15.3559 22.7414 18.3406 20.541 20.541C18.3406 22.7414 15.3559 23.9774 12.2441 23.9775C9.13238 23.9775 6.1477 22.7412 3.94727 20.541C1.74688 18.3406 0.509868 15.3559 0.509766 12.2441C0.509766 9.1322 1.74679 6.14774 3.94727 3.94727C6.14774 1.74679 9.1322 0.509766 12.2441 0.509766ZM13.0088 6.37598C12.8413 6.376 12.6753 6.40858 12.5205 6.47266C12.3657 6.5368 12.225 6.63148 12.1064 6.75C11.988 6.8685 11.8942 7.00925 11.8301 7.16406C11.7659 7.31891 11.7324 7.48474 11.7324 7.65234C11.7324 7.81994 11.7659 7.98578 11.8301 8.14062C11.8942 8.29544 11.988 8.43619 12.1064 8.55469L14.5215 10.9688H6.88672C6.54865 10.9689 6.22443 11.1028 5.98535 11.3418C5.74617 11.581 5.61133 11.9059 5.61133 12.2441C5.61143 12.5823 5.74626 12.9064 5.98535 13.1455C6.22444 13.3846 6.54861 13.5194 6.88672 13.5195H14.5205L12.1064 15.9326C11.988 16.0511 11.8942 16.1919 11.8301 16.3467C11.766 16.5015 11.7324 16.6674 11.7324 16.835C11.7324 17.0025 11.766 17.1684 11.8301 17.3232C11.8942 17.478 11.988 17.6188 12.1064 17.7373C12.225 17.8558 12.3657 17.9505 12.5205 18.0146C12.6753 18.0787 12.8413 18.1113 13.0088 18.1113C13.1763 18.1113 13.3423 18.0787 13.4971 18.0146C13.6519 17.9505 13.7926 17.8558 13.9111 17.7373L18.5029 13.1465C18.6215 13.0281 18.7151 12.8872 18.7793 12.7324C18.8435 12.5776 18.8769 12.4118 18.877 12.2441C18.877 12.0764 18.8436 11.9098 18.7793 11.7549C18.7311 11.6387 18.6665 11.5304 18.5869 11.4336L18.5029 11.3408L13.9111 6.75C13.7926 6.63153 13.6519 6.53776 13.4971 6.47363V6.47266C13.3424 6.40864 13.1762 6.37598 13.0088 6.37598Z" fill="#DB9C1F" stroke="#DB9C1F" stroke-width="1.02031"/>
</g>
<defs>
<clipPath id="clip0_3892_166">
<rect width="24.4875" height="24.4875" fill="white"/>
</clipPath>
</defs>
</svg>
